<mxfile host="app.diagrams.net" modified="2020-10-11T05:57:51.321Z" agent="5.0 (Windows NT 10.0; Win64; x64) AppleWebKit/537.36 (KHTML, like Gecko) Chrome/85.0.4183.83 Safari/537.36" etag="bZnAr_GTNlDKgck98SGW" version="13.7.9" type="github">
  <diagram id="C5RBs43oDa-KdzZeNtuy" name="Page-1">
    <mxGraphModel dx="1422" dy="772" grid="1" gridSize="10" guides="1" tooltips="1" connect="1" arrows="1" fold="1" page="1" pageScale="1" pageWidth="827" pageHeight="1169" math="0" shadow="0">
      <root>
        <mxCell id="WIyWlLk6GJQsqaUBKTNV-0" />
        <mxCell id="WIyWlLk6GJQsqaUBKTNV-1" parent="WIyWlLk6GJQsqaUBKTNV-0" />
        <mxCell id="yA-YHXXEUSsxxsdp3wlv-3" value="" style="shape=table;html=1;whiteSpace=wrap;startSize=0;container=1;collapsible=0;childLayout=tableLayout;" vertex="1" parent="WIyWlLk6GJQsqaUBKTNV-1">
          <mxGeometry x="180" y="110" width="70" height="270" as="geometry" />
        </mxCell>
        <mxCell id="yA-YHXXEUSsxxsdp3wlv-4" value="" style="shape=partialRectangle;html=1;whiteSpace=wrap;collapsible=0;dropTarget=0;pointerEvents=0;fillColor=none;top=0;left=0;bottom=0;right=0;points=[[0,0.5],[1,0.5]];portConstraint=eastwest;" vertex="1" parent="yA-YHXXEUSsxxsdp3wlv-3">
          <mxGeometry width="70" height="68" as="geometry" />
        </mxCell>
        <mxCell id="yA-YHXXEUSsxxsdp3wlv-5" value="4" style="shape=partialRectangle;html=1;whiteSpace=wrap;connectable=0;overflow=hidden;fillColor=none;top=0;left=0;bottom=0;right=0;" vertex="1" parent="yA-YHXXEUSsxxsdp3wlv-4">
          <mxGeometry width="70" height="68" as="geometry" />
        </mxCell>
        <mxCell id="yA-YHXXEUSsxxsdp3wlv-6" value="" style="shape=partialRectangle;html=1;whiteSpace=wrap;collapsible=0;dropTarget=0;pointerEvents=0;fillColor=none;top=0;left=0;bottom=0;right=0;points=[[0,0.5],[1,0.5]];portConstraint=eastwest;" vertex="1" parent="yA-YHXXEUSsxxsdp3wlv-3">
          <mxGeometry y="68" width="70" height="67" as="geometry" />
        </mxCell>
        <mxCell id="yA-YHXXEUSsxxsdp3wlv-7" value="3" style="shape=partialRectangle;html=1;whiteSpace=wrap;connectable=0;overflow=hidden;fillColor=none;top=0;left=0;bottom=0;right=0;" vertex="1" parent="yA-YHXXEUSsxxsdp3wlv-6">
          <mxGeometry width="70" height="67" as="geometry" />
        </mxCell>
        <mxCell id="yA-YHXXEUSsxxsdp3wlv-8" value="" style="shape=partialRectangle;html=1;whiteSpace=wrap;collapsible=0;dropTarget=0;pointerEvents=0;fillColor=none;top=0;left=0;bottom=0;right=0;points=[[0,0.5],[1,0.5]];portConstraint=eastwest;" vertex="1" parent="yA-YHXXEUSsxxsdp3wlv-3">
          <mxGeometry y="135" width="70" height="68" as="geometry" />
        </mxCell>
        <mxCell id="yA-YHXXEUSsxxsdp3wlv-9" value="2" style="shape=partialRectangle;html=1;whiteSpace=wrap;connectable=0;overflow=hidden;fillColor=none;top=0;left=0;bottom=0;right=0;" vertex="1" parent="yA-YHXXEUSsxxsdp3wlv-8">
          <mxGeometry width="70" height="68" as="geometry" />
        </mxCell>
        <mxCell id="yA-YHXXEUSsxxsdp3wlv-10" value="" style="shape=partialRectangle;html=1;whiteSpace=wrap;collapsible=0;dropTarget=0;pointerEvents=0;fillColor=none;top=0;left=0;bottom=0;right=0;points=[[0,0.5],[1,0.5]];portConstraint=eastwest;" vertex="1" parent="yA-YHXXEUSsxxsdp3wlv-3">
          <mxGeometry y="203" width="70" height="67" as="geometry" />
        </mxCell>
        <mxCell id="yA-YHXXEUSsxxsdp3wlv-11" value="1" style="shape=partialRectangle;html=1;whiteSpace=wrap;connectable=0;overflow=hidden;fillColor=none;top=0;left=0;bottom=0;right=0;" vertex="1" parent="yA-YHXXEUSsxxsdp3wlv-10">
          <mxGeometry width="70" height="67" as="geometry" />
        </mxCell>
        <mxCell id="yA-YHXXEUSsxxsdp3wlv-12" value="" style="shape=table;html=1;whiteSpace=wrap;startSize=0;container=1;collapsible=0;childLayout=tableLayout;" vertex="1" parent="WIyWlLk6GJQsqaUBKTNV-1">
          <mxGeometry x="330" y="110" width="70" height="270" as="geometry" />
        </mxCell>
        <mxCell id="yA-YHXXEUSsxxsdp3wlv-13" value="" style="shape=partialRectangle;html=1;whiteSpace=wrap;collapsible=0;dropTarget=0;pointerEvents=0;fillColor=none;top=0;left=0;bottom=0;right=0;points=[[0,0.5],[1,0.5]];portConstraint=eastwest;" vertex="1" parent="yA-YHXXEUSsxxsdp3wlv-12">
          <mxGeometry width="70" height="68" as="geometry" />
        </mxCell>
        <mxCell id="yA-YHXXEUSsxxsdp3wlv-14" value="4" style="shape=partialRectangle;html=1;whiteSpace=wrap;connectable=0;overflow=hidden;fillColor=none;top=0;left=0;bottom=0;right=0;" vertex="1" parent="yA-YHXXEUSsxxsdp3wlv-13">
          <mxGeometry width="70" height="68" as="geometry" />
        </mxCell>
        <mxCell id="yA-YHXXEUSsxxsdp3wlv-15" value="" style="shape=partialRectangle;html=1;whiteSpace=wrap;collapsible=0;dropTarget=0;pointerEvents=0;fillColor=none;top=0;left=0;bottom=0;right=0;points=[[0,0.5],[1,0.5]];portConstraint=eastwest;" vertex="1" parent="yA-YHXXEUSsxxsdp3wlv-12">
          <mxGeometry y="68" width="70" height="67" as="geometry" />
        </mxCell>
        <mxCell id="yA-YHXXEUSsxxsdp3wlv-16" value="3" style="shape=partialRectangle;html=1;whiteSpace=wrap;connectable=0;overflow=hidden;fillColor=none;top=0;left=0;bottom=0;right=0;" vertex="1" parent="yA-YHXXEUSsxxsdp3wlv-15">
          <mxGeometry width="70" height="67" as="geometry" />
        </mxCell>
        <mxCell id="yA-YHXXEUSsxxsdp3wlv-17" value="" style="shape=partialRectangle;html=1;whiteSpace=wrap;collapsible=0;dropTarget=0;pointerEvents=0;fillColor=none;top=0;left=0;bottom=0;right=0;points=[[0,0.5],[1,0.5]];portConstraint=eastwest;" vertex="1" parent="yA-YHXXEUSsxxsdp3wlv-12">
          <mxGeometry y="135" width="70" height="68" as="geometry" />
        </mxCell>
        <mxCell id="yA-YHXXEUSsxxsdp3wlv-18" value="2" style="shape=partialRectangle;html=1;whiteSpace=wrap;connectable=0;overflow=hidden;fillColor=none;top=0;left=0;bottom=0;right=0;" vertex="1" parent="yA-YHXXEUSsxxsdp3wlv-17">
          <mxGeometry width="70" height="68" as="geometry" />
        </mxCell>
        <mxCell id="yA-YHXXEUSsxxsdp3wlv-19" value="" style="shape=partialRectangle;html=1;whiteSpace=wrap;collapsible=0;dropTarget=0;pointerEvents=0;fillColor=none;top=0;left=0;bottom=0;right=0;points=[[0,0.5],[1,0.5]];portConstraint=eastwest;" vertex="1" parent="yA-YHXXEUSsxxsdp3wlv-12">
          <mxGeometry y="203" width="70" height="67" as="geometry" />
        </mxCell>
        <mxCell id="yA-YHXXEUSsxxsdp3wlv-20" value="1" style="shape=partialRectangle;html=1;whiteSpace=wrap;connectable=0;overflow=hidden;fillColor=none;top=0;left=0;bottom=0;right=0;" vertex="1" parent="yA-YHXXEUSsxxsdp3wlv-19">
          <mxGeometry width="70" height="67" as="geometry" />
        </mxCell>
        <mxCell id="yA-YHXXEUSsxxsdp3wlv-30" value="内存溢出" style="text;html=1;align=center;verticalAlign=middle;resizable=0;points=[];autosize=1;" vertex="1" parent="WIyWlLk6GJQsqaUBKTNV-1">
          <mxGeometry x="185" y="50" width="60" height="20" as="geometry" />
        </mxCell>
        <mxCell id="yA-YHXXEUSsxxsdp3wlv-31" value="栈溢出" style="text;html=1;align=center;verticalAlign=middle;resizable=0;points=[];autosize=1;" vertex="1" parent="WIyWlLk6GJQsqaUBKTNV-1">
          <mxGeometry x="335" y="50" width="50" height="20" as="geometry" />
        </mxCell>
        <mxCell id="yA-YHXXEUSsxxsdp3wlv-43" value="" style="endArrow=classic;html=1;" edge="1" parent="WIyWlLk6GJQsqaUBKTNV-1" source="yA-YHXXEUSsxxsdp3wlv-10">
          <mxGeometry width="50" height="50" relative="1" as="geometry">
            <mxPoint x="170" y="430" as="sourcePoint" />
            <mxPoint x="160" y="440" as="targetPoint" />
            <Array as="points">
              <mxPoint x="210" y="410" />
              <mxPoint x="190" y="430" />
            </Array>
          </mxGeometry>
        </mxCell>
        <mxCell id="yA-YHXXEUSsxxsdp3wlv-47" value="" style="curved=1;endArrow=classic;html=1;" edge="1" parent="WIyWlLk6GJQsqaUBKTNV-1">
          <mxGeometry width="50" height="50" relative="1" as="geometry">
            <mxPoint x="350" y="110" as="sourcePoint" />
            <mxPoint x="440" y="130" as="targetPoint" />
            <Array as="points">
              <mxPoint x="370" y="80" />
              <mxPoint x="440" y="80" />
            </Array>
          </mxGeometry>
        </mxCell>
        <mxCell id="yA-YHXXEUSsxxsdp3wlv-48" value="先进先出" style="text;html=1;align=center;verticalAlign=middle;resizable=0;points=[];autosize=1;" vertex="1" parent="WIyWlLk6GJQsqaUBKTNV-1">
          <mxGeometry x="100" y="370" width="60" height="20" as="geometry" />
        </mxCell>
        <mxCell id="yA-YHXXEUSsxxsdp3wlv-49" value="后进先出" style="text;html=1;align=center;verticalAlign=middle;resizable=0;points=[];autosize=1;" vertex="1" parent="WIyWlLk6GJQsqaUBKTNV-1">
          <mxGeometry x="400" y="130" width="60" height="20" as="geometry" />
        </mxCell>
      </root>
    </mxGraphModel>
  </diagram>
</mxfile>
